<?xml version="1.0" encoding="UTF-8"?>
<!DOCTYPE svg PUBLIC "-//W3C//DTD SVG 1.1//EN" "http://www.w3.org/Graphics/SVG/1.1/DTD/svg11.dtd">
<!-- Creator: CorelDRAW 2020 (64-Bit) -->
<svg xmlns="http://www.w3.org/2000/svg" xml:space="preserve" width="1000px" height="1000px" version="1.1" style="shape-rendering:geometricPrecision; text-rendering:geometricPrecision; image-rendering:optimizeQuality; fill-rule:evenodd; clip-rule:evenodd"
viewBox="0 0 1000 1000"
 xmlns:xlink="http://www.w3.org/1999/xlink"
 xmlns:xodm="http://www.corel.com/coreldraw/odm/2003">
 <defs>
  <style type="text/css">
   <![CDATA[
    .fil0 {fill:#C8102E}
    .fil1 {fill:#FEFEFE;fill-rule:nonzero}
   ]]>
  </style>
 </defs>
 <g id="Layer_x0020_1">
  <metadata id="CorelCorpID_0Corel-Layer"/>
  <polygon class="fil0" points="0,1000 1000,1000 1000,0 0,0 "/>
  <path class="fil1" d="M302.74 392.22l-4.99 57.27 -11.61 0 0 -29.68c-13.33,-15.77 -32.58,-23.96 -55.61,-23.96 -45.07,0 -75.7,31.37 -75.7,89.62 0,58.25 30.63,89.62 75.7,89.62 19.82,0 40.59,-3.49 60.92,-14.4l8.06 13.83c-16.37,13.06 -47.32,20.81 -68.98,20.81 -72.24,0 -121.32,-37.93 -121.32,-108.33 0,-70.4 49.08,-108.33 121.32,-108.33 28.34,0 49.31,5.13 72.21,13.55zm576.63 52.45c8.5,0 15.74,1.73 21.42,4.82l-3.92 45.01 -11.61 0c-4,-10.96 -11.36,-15.62 -21.77,-15.62 -16.39,0 -25.98,11.6 -25.98,41.12l0 58.88 25.98 0 0 11.61 -85.93 0 0 -11.61 23.02 0 0 -117.77 -23.02 0 0 -11.62 59.95 -4.82 0 33.13c6.36,-17.33 17.54,-33.13 41.86,-33.13zm-258.36 16.44l-14.29 0 -55.51 129.38 -25.6 0 -50.35 -129.38 -14.58 0 0 -11.62 77.76 0 0 11.62 -21.59 0 33.16 88.88 35.02 -88.88 -21.59 0 0 -11.62 57.57 0 0 11.62zm-236.87 -16.44c41.55,0 66,17.06 70.63,59.51l-40.43 0c-2.51,-30.66 -12.93,-43.07 -30.2,-43.07 -17.28,0 -27.69,12.41 -30.2,43.07l-40.44 0c4.64,-42.45 29.09,-59.51 70.64,-59.51zm70.63 91.14c-4.63,42.45 -29.08,59.51 -70.63,59.51 -41.55,0 -66,-17.06 -70.64,-59.51l40.44 0c2.51,30.64 12.93,43.04 30.2,43.04 17.27,0 27.68,-12.4 30.19,-43.04l40.44 0zm238.5 -91.14c42.1,0 65.45,19.97 66.82,70.49 0.01,0.01 -87.14,10.43 -95.39,11.42 1.92,25.21 15.17,47.06 44.69,47.17 14.36,0.05 30.21,-6.71 38.52,-12.8l7.91 13.57c-16.51,14.75 -39.47,20.8 -62.55,20.8 -43.41,0 -66.89,-32.51 -66.89,-75.33 0,-54.07 34.76,-75.32 66.89,-75.32zm28.09 57.25c-2.66,-29.01 -12.32,-40.81 -28.09,-40.81 -16.94,0 -26.84,13.62 -28.55,47.58l56.64 -6.77z"/>
 </g>
</svg>
