<?xml version="1.0" encoding="UTF-8"?>
<!DOCTYPE svg PUBLIC "-//W3C//DTD SVG 1.1//EN" "http://www.w3.org/Graphics/SVG/1.1/DTD/svg11.dtd">
<!-- Creator: CorelDRAW 2020 (64-Bit) -->
<svg xmlns="http://www.w3.org/2000/svg" xml:space="preserve" width="32px" height="32px" version="1.1" style="shape-rendering:geometricPrecision; text-rendering:geometricPrecision; image-rendering:optimizeQuality; fill-rule:evenodd; clip-rule:evenodd"
viewBox="0 0 32 32"
 xmlns:xlink="http://www.w3.org/1999/xlink"
 xmlns:xodm="http://www.corel.com/coreldraw/odm/2003">
 <defs>
  <style type="text/css">
   <![CDATA[
    .fil1 {fill:#FEFEFE}
    .fil0 {fill:#C8102E}
   ]]>
  </style>
 </defs>
 <g id="Layer_x0020_1">
  <metadata id="CorelCorpID_0Corel-Layer"/>
  <circle class="fil0" cx="16" cy="16" r="16"/>
  <path class="fil1" d="M22.02 9.98c-1.2,-1.33 -3.23,-1.98 -5.02,-1.98 -4.58,0 -7,3.78 -7,8 0,4.22 2.42,8 7,8 2.88,0 3.78,-0.63 6,-2l1 2c-1.83,1.46 -3.89,2 -7,2 -6.65,0 -12,-2.97 -12,-10 0,-7.03 5.35,-10 12,-10 3.25,0 5.18,0.68 8,2l-1 6 -2 0 0.02 -4.02z"/>
 </g>
</svg>
