<?xml version="1.0" encoding="UTF-8"?>
<!DOCTYPE svg PUBLIC "-//W3C//DTD SVG 1.1//EN" "http://www.w3.org/Graphics/SVG/1.1/DTD/svg11.dtd">
<!-- Creator: CorelDRAW 2020 (64-Bit) -->
<svg xmlns="http://www.w3.org/2000/svg" xml:space="preserve" width="1000px" height="1000px" version="1.1" style="shape-rendering:geometricPrecision; text-rendering:geometricPrecision; image-rendering:optimizeQuality; fill-rule:evenodd; clip-rule:evenodd"
viewBox="0 0 1000 1000"
 xmlns:xlink="http://www.w3.org/1999/xlink"
 xmlns:xodm="http://www.corel.com/coreldraw/odm/2003">
 <defs>
  <style type="text/css">
   <![CDATA[
    .fil0 {fill:#C8102E}
    .fil1 {fill:#FEFEFE;fill-rule:nonzero}
   ]]>
  </style>
 </defs>
 <g id="Layer_x0020_1">
  <metadata id="CorelCorpID_0Corel-Layer"/>
  <g id="_1703933672448">
   <circle class="fil0" cx="500" cy="500" r="500"/>
   <path class="fil1" d="M737.05 226.56l-14.37 165.24 -33.52 0 0 -85.64c-38.45,-45.5 -93.98,-69.12 -160.41,-69.12 -130.04,0 -218.4,90.51 -218.4,258.55 0,168.04 88.36,258.56 218.4,258.56 57.17,0 117.09,-10.09 175.73,-41.57l23.27 39.9c-47.24,37.68 -136.53,60.03 -199,60.03 -208.4,0 -350,-109.4 -350,-312.51 0,-203.1 141.6,-312.51 350,-312.51 81.74,0 142.26,14.79 208.3,39.07z"/>
  </g>
 </g>
</svg>
